<?xml version="1.0" encoding="UTF-8"?>
<!DOCTYPE svg PUBLIC "-//W3C//DTD SVG 1.1//EN"
  "http://www.w3.org/Graphics/SVG/1.1/DTD/svg11.dtd">
<svg height="567pt" xmlns:xlink="http://www.w3.org/1999/xlink" xmlns="http://www.w3.org/2000/svg" width="567pt" version="1.1" viewBox="0,0,567,567">

<g id="Layer" inkpad:layerName="Layer 3">
<path stroke="#6d1d00" stroke-width="32.8398" d="M234.007+38.7335L232.514+420.993" fill="#ffffff" stroke-linecap="round" opacity="1" stroke-linejoin="round"/>
<path stroke="#6d1d00" stroke-width="17.2689" d="M269.86+39.1918L462.483+337.334L270.357+337.334L269.86+39.1918Z" fill="#ffffff" stroke-linecap="round" opacity="1" stroke-linejoin="round"/>
</g>
<g id="Layer_2" inkpad:layerName="Layer 1" visibility="hidden">
<path d="M181.563+479.169C181.563+452.368+203.959+430.64+231.585+430.64C259.212+430.64+281.607+452.368+281.607+479.169C281.607+505.971+259.212+527.698+231.585+527.698C203.959+527.698+181.563+505.971+181.563+479.169Z" stroke="#6d1d00" stroke-width="17.2689" fill="#ffffff" opacity="1" stroke-linejoin="round"/>
<path d="M256.943+479.059C256.943+492.781+245.477+503.906+231.332+503.906C217.187+503.906+205.721+492.781+205.721+479.059C205.721+465.337+217.187+454.212+231.332+454.212C245.477+454.212+256.943+465.337+256.943+479.059Z" stroke="#6d1d00" stroke-width="11.4325" fill="#ffffff" opacity="1" stroke-linejoin="round"/>
<path d="M286.261+478.163C286.261+451.362+308.657+429.634+336.283+429.634C363.91+429.634+386.306+451.362+386.306+478.163C386.306+504.965+363.91+526.693+336.283+526.693C308.657+526.693+286.261+504.965+286.261+478.163Z" stroke="#6d1d00" stroke-width="17.2689" fill="#ffffff" opacity="1" stroke-linejoin="round"/>
<path d="M361.641+478.053C361.641+491.775+350.175+502.9+336.03+502.9C321.885+502.9+310.419+491.775+310.419+478.053C310.419+464.331+321.885+453.206+336.03+453.206C350.175+453.206+361.641+464.331+361.641+478.053Z" stroke="#6d1d00" stroke-width="11.4325" fill="#ffffff" opacity="1" stroke-linejoin="round"/>
<path d="M392.175+478.331C392.175+451.529+414.571+429.802+442.198+429.802C469.824+429.802+492.22+451.529+492.22+478.331C492.22+505.133+469.824+526.86+442.198+526.86C414.571+526.86+392.175+505.133+392.175+478.331Z" stroke="#6d1d00" stroke-width="17.2689" fill="#ffffff" opacity="1" stroke-linejoin="round"/>
<path d="M467.555+478.221C467.555+491.943+456.089+503.067+441.944+503.067C427.8+503.067+416.333+491.943+416.333+478.221C416.333+464.498+427.8+453.374+441.944+453.374C456.089+453.374+467.555+464.498+467.555+478.221Z" stroke="#6d1d00" stroke-width="11.4325" fill="#ffffff" opacity="1" stroke-linejoin="round"/>
<path d="M74.7802+479.737C74.7802+452.936+97.1759+431.208+124.802+431.208C152.429+431.208+174.825+452.936+174.825+479.737C174.825+506.539+152.429+528.266+124.802+528.266C97.1759+528.266+74.7802+506.539+74.7802+479.737Z" stroke="#6d1d00" stroke-width="17.2689" fill="#ffffff" opacity="1" stroke-linejoin="round"/>
<path d="M150.16+479.627C150.16+493.349+138.694+504.474+124.549+504.474C110.405+504.474+98.9382+493.349+98.9382+479.627C98.9382+465.905+110.405+454.78+124.549+454.78C138.694+454.78+150.16+465.905+150.16+479.627Z" stroke="#6d1d00" stroke-width="11.4325" fill="#ffffff" opacity="1" stroke-linejoin="round"/>
</g>
<g id="Layer_3" inkpad:layerName="Layer 2">
<path stroke="#6d1d00" stroke-width="73.6533" d="M51.03+450.765L476.28+450.765" fill="#ffffff" stroke-linecap="round" opacity="1" stroke-linejoin="round"/>
</g>
</svg>
